<?xml version="1.0" encoding="UTF-8" standalone="no"?>
<svg
   xmlns:dc="http://purl.org/dc/elements/1.1/"
   xmlns:cc="http://creativecommons.org/ns#"
   xmlns:rdf="http://www.w3.org/1999/02/22-rdf-syntax-ns#"
   xmlns:svg="http://www.w3.org/2000/svg"
   xmlns="http://www.w3.org/2000/svg"
   xmlns:sodipodi="http://sodipodi.sourceforge.net/DTD/sodipodi-0.dtd"
   xmlns:inkscape="http://www.inkscape.org/namespaces/inkscape"
   version="1.0"
   width="215pt"
   height="168pt"
   viewBox="0 0 215 168"
   preserveAspectRatio="xMidYMid meet"
   id="svg10"
   sodipodi:docname="logo-removebg-preview.svg"
   inkscape:version="0.92.5 (2060ec1f9f, 2020-04-08)">
  <metadata
     id="metadata16">
    <rdf:RDF>
      <cc:Work
         rdf:about="">
        <dc:format>image/svg+xml</dc:format>
        <dc:type
           rdf:resource="http://purl.org/dc/dcmitype/StillImage" />
        <dc:title></dc:title>
      </cc:Work>
    </rdf:RDF>
  </metadata>
  <defs
     id="defs14" />
  <sodipodi:namedview
     pagecolor="#ffffff"
     bordercolor="#666666"
     borderopacity="1"
     objecttolerance="10"
     gridtolerance="10"
     guidetolerance="10"
     inkscape:pageopacity="0"
     inkscape:pageshadow="2"
     inkscape:window-width="1224"
     inkscape:window-height="656"
     id="namedview12"
     showgrid="false"
     inkscape:zoom="1.0535714"
     inkscape:cx="408.33898"
     inkscape:cy="112"
     inkscape:window-x="56"
     inkscape:window-y="27"
     inkscape:window-maximized="1"
     inkscape:current-layer="svg10" />
  <g
     transform="matrix(0.1,0,0,-0.1,-45.559322,169.42373)"
     id="g8"
     style="fill:#000000;stroke:none">
    <path
       d="m 1410,1557 c -36,-39 -90,-98 -121,-131 -31,-34 -69,-76 -85,-95 -16,-19 -54,-60 -84,-92 -61,-64 -90,-100 -90,-110 0,-4 34,-38 76,-76 110,-98 230,-208 300,-275 34,-32 64,-58 68,-58 3,0 16,-10 27,-21 l 21,-21 47,50 c 25,28 57,63 71,79 35,40 218,240 264,288 76,81 76,76 6,145 -35,33 -68,64 -75,68 -7,4 -44,36 -83,72 -74,70 -185,169 -242,218 l -35,30 z"
       id="path2"
       inkscape:connector-curvature="0" />
    <path
       d="m 2009,1053 c -23,-27 -84,-93 -135,-148 -51,-55 -107,-118 -125,-140 -19,-21 -59,-66 -91,-100 l -56,-60 81,-74 c 45,-41 112,-101 148,-135 134,-123 229,-208 253,-227 l 24,-19 27,32 c 32,39 159,179 232,254 28,30 53,58 55,64 2,5 33,40 70,78 l 67,70 -69,63 c -37,35 -103,96 -145,134 -43,39 -105,96 -138,128 -34,31 -63,57 -67,57 -3,0 -21,16 -40,35 -19,19 -38,35 -41,35 -4,0 -26,-21 -50,-47 z"
       id="path4"
       inkscape:connector-curvature="0" />
    <path
       d="M 933,1036 C 926,1023 832,918 755,836 739,818 687,761 640,709 593,657 543,602 528,585 c -16,-16 -28,-33 -28,-36 0,-4 19,-23 43,-44 71,-62 189,-168 222,-200 17,-16 64,-59 105,-95 41,-36 85,-76 99,-90 l 25,-25 106,115 c 58,63 112,122 120,131 8,9 44,49 80,90 36,40 84,94 108,120 l 42,47 -22,20 c -13,11 -61,55 -108,98 -47,44 -121,111 -165,149 -43,39 -106,96 -140,128 -34,31 -64,57 -68,57 -3,0 -10,-6 -14,-14 z"
       id="path6"
       inkscape:connector-curvature="0" />
  </g>
</svg>
