<?xml version="1.0" encoding="UTF-8" standalone="no"?>
<svg
   xmlns:dc="http://purl.org/dc/elements/1.1/"
   xmlns:cc="http://creativecommons.org/ns#"
   xmlns:rdf="http://www.w3.org/1999/02/22-rdf-syntax-ns#"
   xmlns:svg="http://www.w3.org/2000/svg"
   xmlns="http://www.w3.org/2000/svg"
   xmlns:sodipodi="http://sodipodi.sourceforge.net/DTD/sodipodi-0.dtd"
   xmlns:inkscape="http://www.inkscape.org/namespaces/inkscape"
   viewBox="0 0 448 512"
   version="1.1"
   id="svg4"
   sodipodi:docname="python.svg"
   inkscape:version="1.0.2 (e86c870879, 2021-01-15)">
  <metadata
     id="metadata10">
    <rdf:RDF>
      <cc:Work
         rdf:about="">
        <dc:format>image/svg+xml</dc:format>
        <dc:type
           rdf:resource="http://purl.org/dc/dcmitype/StillImage" />
      </cc:Work>
    </rdf:RDF>
  </metadata>
  <defs
     id="defs8" />
  <sodipodi:namedview
     pagecolor="#ffffff"
     bordercolor="#666666"
     borderopacity="1"
     objecttolerance="10"
     gridtolerance="10"
     guidetolerance="10"
     inkscape:pageopacity="0"
     inkscape:pageshadow="2"
     inkscape:window-width="764"
     inkscape:window-height="480"
     id="namedview6"
     showgrid="false"
     inkscape:zoom="0.95703125"
     inkscape:cx="224"
     inkscape:cy="256"
     inkscape:window-x="0"
     inkscape:window-y="0"
     inkscape:window-maximized="0"
     inkscape:current-layer="svg4"
     inkscape:document-rotation="0" />
  <!-- Font Awesome Free 5.15.2 by @fontawesome - https://fontawesome.com License - https://fontawesome.com/license/free (Icons: CC BY 4.0, Fonts: SIL OFL 1.1, Code: MIT License) -->
  <path
     d="m 439.8,200.5 c -7.7,-30.9 -22.3,-54.2 -53.4,-54.2 h -40.1 v 47.4 c 0,36.8 -31.2,67.8 -66.8,67.8 H 172.7 c -29.2,0 -53.4,25 -53.4,54.3 v 101.8 c 0,29 25.2,46 53.4,54.3 33.8,9.9 66.3,11.7 106.8,0 26.9,-7.8 53.4,-23.5 53.4,-54.3 V 376.9 H 226.2 v -13.6 h 160.2 c 31.1,0 42.6,-21.7 53.4,-54.2 11.19999,-33.5 10.70001,-65.7 0,-108.6 z M 286.2,404 c 11.1,0 20.1,9.1 20.1,20.3 0,11.3 -9,20.4 -20.1,20.4 -11,0 -20.1,-9.2 -20.1,-20.4 0.1,-11.3 9.1,-20.3 20.1,-20.3 z M 167.8,248.1 h 106.8 c 29.7,0 53.4,-24.5 53.4,-54.3 V 91.9 c 0,-29 -24.4,-50.7 -53.4,-55.6 -35.8,-5.9 -74.7,-5.6 -106.8,0.1 -45.2,8 -53.4,24.7 -53.4,55.6 v 40.7 h 106.9 v 13.6 H 74.300002 C 43.2,146.3 16,165 7.4999999,200.5 -2.3,241.2 -2.7,266.6 7.4999999,309.1 15.1,340.7 33.2,363.3 64.3,363.3 H 101 v -48.8 c 0,-35.3 30.5,-66.4 66.8,-66.4 z M 161.1,105.5 C 150,105.5 141,96.4 141,85.2 c 0.1,-11.3 9,-20.4 20.1,-20.4 11,0 20.1,9.2 20.1,20.4 0,11.2 -9,20.3 -20.1,20.3 z"
     id="path2"
     style="fill:#4d4d4d;stroke-width:1" />
</svg>
