<?xml version="1.0" encoding="UTF-8" standalone="no"?>
<svg
   xmlns:dc="http://purl.org/dc/elements/1.1/"
   xmlns:cc="http://creativecommons.org/ns#"
   xmlns:rdf="http://www.w3.org/1999/02/22-rdf-syntax-ns#"
   xmlns:svg="http://www.w3.org/2000/svg"
   xmlns="http://www.w3.org/2000/svg"
   xmlns:sodipodi="http://sodipodi.sourceforge.net/DTD/sodipodi-0.dtd"
   xmlns:inkscape="http://www.inkscape.org/namespaces/inkscape"
   version="1.0"
   width="360.000000pt"
   height="457.000000pt"
   viewBox="0 0 360.000000 457.000000"
   preserveAspectRatio="xMidYMid meet"
   id="svg10"
   sodipodi:docname="tribal.svg"
   inkscape:version="1.0.2-2 (e86c870879, 2021-01-15)">
  <metadata
     id="metadata16">
    <rdf:RDF>
      <cc:Work
         rdf:about="">
        <dc:format>image/svg+xml</dc:format>
        <dc:type
           rdf:resource="http://purl.org/dc/dcmitype/StillImage" />
      </cc:Work>
    </rdf:RDF>
  </metadata>
  <defs
     id="defs14" />
  <sodipodi:namedview
     pagecolor="#ffffff"
     bordercolor="#666666"
     borderopacity="1"
     objecttolerance="10"
     gridtolerance="10"
     guidetolerance="10"
     inkscape:pageopacity="0"
     inkscape:pageshadow="2"
     inkscape:window-width="1280"
     inkscape:window-height="657"
     id="namedview12"
     showgrid="false"
     inkscape:zoom="0.80415755"
     inkscape:cx="233.31321"
     inkscape:cy="444.44359"
     inkscape:window-x="-8"
     inkscape:window-y="-8"
     inkscape:window-maximized="1"
     inkscape:current-layer="svg10"
     inkscape:document-rotation="0" />
  <g
     transform="matrix(0,0.1,0.1,0,-50.450975,49.310695)"
     fill="#000000"
     stroke="none"
     id="g8"
     style="fill:#0c1826;fill-opacity:1">
    <path
       d="m 2635,4563 c -22,-1 -137,-15 -255,-29 l -216,-27 -33,-61 c -19,-34 -91,-151 -161,-261 -185,-291 -223,-358 -294,-506 -65,-136 -161,-387 -152,-396 3,-3 22,8 43,24 138,107 472,284 738,391 114,46 527,202 654,247 41,15 -13,10 -174,-15 -394,-63 -718,-150 -892,-239 -23,-11 -45,-21 -48,-21 -3,0 19,49 50,110 69,134 189,316 285,432 l 73,87 70,16 c 223,51 485,59 734,24 81,-11 150,-22 152,-24 5,-6 -37,-219 -50,-253 -16,-41 -5,-34 43,31 65,88 202,231 303,317 47,40 82,76 78,81 -11,10 -351,57 -507,69 -119,9 -346,11 -441,3 z"
       id="path2"
       style="fill:#0c1826;fill-opacity:1" />
    <path
       d="M 1843,4440 C 1177,4332 615,4176 127,3963 14,3913 -1,3904 3,3886 c 3,-12 22,-117 43,-234 23,-127 43,-211 49,-208 5,2 69,44 140,93 348,241 560,340 989,463 59,17 110,29 113,26 3,-3 -15,-55 -40,-117 l -45,-112 -118,-33 c -316,-86 -614,-234 -891,-442 -57,-42 -103,-82 -103,-88 0,-6 59,-186 130,-399 252,-751 413,-1106 694,-1535 95,-144 313,-450 321,-450 2,0 -32,60 -74,133 -305,520 -460,881 -620,1437 -58,203 -201,752 -201,772 0,14 143,112 250,171 135,74 342,145 479,163 l 49,6 -34,-128 c -47,-178 -98,-431 -138,-679 -18,-115 -32,-211 -31,-213 2,-2 58,41 126,96 405,323 697,517 1014,672 142,69 426,192 436,188 4,-2 -34,-100 -83,-218 -406,-974 -622,-1794 -678,-2572 -12,-174 -12,-673 1,-613 4,22 8,65 8,95 2,155 66,562 137,872 207,904 654,2047 1065,2726 38,63 69,115 69,117 0,4 -337,-135 -519,-214 -438,-190 -708,-334 -1076,-575 -71,-47 -131,-81 -133,-77 -4,13 45,234 79,351 120,420 325,820 543,1058 45,49 50,48 -111,22 z"
       id="path4"
       style="fill:#0c1826;fill-opacity:1" />
    <path
       d="M 2017,3100 C 1491,2792 1298,2650 1004,2353 l -122,-123 -61,166 c -34,92 -100,288 -147,438 -113,359 -102,330 -103,271 -1,-68 24,-317 44,-440 72,-448 267,-874 623,-1364 52,-72 77,-99 82,-90 16,28 130,422 169,580 41,169 95,448 105,554 6,52 -3,33 -62,-140 -105,-304 -267,-695 -282,-678 -19,20 -138,231 -201,356 l -70,138 110,117 c 241,257 383,376 659,551 62,40 119,74 126,77 16,6 -11,-106 -128,-531 -117,-427 -156,-692 -135,-915 9,-97 34,-219 57,-280 9,-24 10,-23 16,15 54,346 100,561 186,865 96,338 244,774 408,1203 33,86 57,157 53,157 -3,0 -144,-81 -314,-180 z"
       id="path6"
       style="fill:#0c1826;fill-opacity:1" />
  </g>
</svg>
